<?xml version="1.0" standalone="no"?>
<!DOCTYPE svg PUBLIC "-//W3C//DTD SVG 20010904//EN"
 "http://www.w3.org/TR/2001/REC-SVG-20010904/DTD/svg10.dtd">
<svg version="1.0" xmlns="http://www.w3.org/2000/svg"
 width="200.000000pt" height="202.000000pt" viewBox="0 0 200.000000 202.000000"
 preserveAspectRatio="xMidYMid meet">

<g transform="translate(0.000000,202.000000) scale(0.100000,-0.100000)"
fill="#000000" stroke="none">
<path d="M860 1954 c-14 -2 -53 -12 -88 -20 l-63 -17 7 -31 c10 -48 32 -85 81
-137 140 -150 395 -103 479 87 13 30 24 61 24 68 0 27 -108 48 -265 51 -82 2
-161 1 -175 -1z"/>
<path d="M505 1816 c-116 -76 -197 -156 -270 -265 l-64 -96 22 -17 c53 -40
179 -55 264 -30 46 14 136 89 158 133 32 61 43 139 29 206 -12 57 -41 124 -54
123 -3 -1 -41 -25 -85 -54z"/>
<path d="M1412 1857 c-35 -44 -46 -85 -46 -167 0 -68 4 -93 22 -127 57 -108
149 -167 261 -167 74 0 135 15 169 42 l23 18 -49 75 c-90 134 -196 236 -328
314 -32 19 -44 22 -52 12z"/>
<path d="M949 1541 c-34 -35 -37 -68 -8 -105 16 -21 29 -26 64 -26 35 0 48 5
64 26 34 43 21 102 -26 123 -39 18 -63 13 -94 -18z"/>
<path d="M655 1439 c-38 -11 -55 -34 -55 -75 0 -49 30 -79 80 -79 32 0 47 6
61 24 21 25 25 71 9 101 -13 25 -59 39 -95 29z"/>
<path d="M1293 1440 c-44 -18 -58 -90 -24 -131 27 -33 95 -33 122 0 24 29 24
82 2 109 -21 24 -69 35 -100 22z"/>
<path d="M113 1298 c-40 -111 -43 -378 -8 -495 17 -55 22 -62 40 -57 146 44
235 154 235 291 0 134 -101 265 -221 288 -32 6 -35 4 -46 -27z"/>
<path d="M1825 1319 c-51 -15 -126 -81 -159 -139 -28 -50 -31 -63 -31 -140 1
-72 5 -93 27 -136 35 -66 92 -117 163 -143 32 -12 60 -20 62 -17 3 2 14 40 25
83 25 95 30 289 9 373 -35 146 -29 139 -96 119z"/>
<path d="M501 1103 c-34 -28 -38 -84 -10 -117 59 -68 171 -4 139 79 -21 55
-86 73 -129 38z"/>
<path d="M1395 1094 c-57 -62 -9 -142 80 -135 24 3 65 49 65 74 0 26 -27 74
-45 81 -37 14 -76 6 -100 -20z"/>
<path d="M643 790 c-66 -27 -54 -139 16 -155 33 -7 85 15 95 40 17 46 4 91
-35 110 -32 17 -44 18 -76 5z"/>
<path d="M1295 788 c-32 -17 -45 -39 -45 -78 0 -44 23 -69 73 -77 85 -13 124
112 46 152 -33 18 -47 18 -74 3z"/>
<path d="M233 655 c-29 -13 -53 -29 -53 -35 0 -17 76 -136 122 -191 54 -64
174 -162 241 -195 49 -25 51 -26 64 -8 28 38 46 125 40 191 -10 108 -62 184
-159 232 -81 41 -176 43 -255 6z"/>
<path d="M1546 660 c-61 -24 -119 -79 -154 -145 -36 -70 -37 -179 -3 -253 14
-29 29 -52 34 -52 36 0 193 114 269 196 56 59 138 183 138 206 0 13 -17 27
-52 43 -67 31 -160 33 -232 5z"/>
<path d="M949 641 c-17 -18 -29 -40 -29 -56 0 -35 50 -85 85 -85 35 0 85 50
85 85 0 35 -50 85 -85 85 -16 0 -38 -12 -56 -29z"/>
<path d="M935 401 c-95 -25 -184 -108 -210 -194 -8 -28 -13 -52 -10 -55 2 -2
41 -13 87 -24 144 -35 318 -29 481 18 23 7 22 23 -7 86 -28 63 -82 120 -143
149 -48 23 -148 33 -198 20z"/>
</g>
</svg>
