<svg width="39" height="38" viewBox="0 0 39 38" fill="none" xmlns="http://www.w3.org/2000/svg">
<path d="M16.0022 0.04293C15.7147 0.0840001 14.9138 0.28935 14.1951 0.45363L12.9014 0.802726L13.0451 1.43931C13.2505 2.42499 13.7022 3.18479 14.7084 4.25261C17.5834 7.33286 22.8198 6.36772 24.5447 2.46606C24.8117 1.85001 25.0376 1.21343 25.0376 1.06968C25.0376 0.515236 22.8198 0.0840001 19.5958 0.022395C17.9119 -0.018675 16.2896 0.00185998 16.0022 0.04293Z" fill="black" fill-opacity="0.77"/>
<path d="M8.7127 2.87677C6.33064 4.43743 4.6673 6.08023 3.16825 8.31855L1.854 10.2899L2.30577 10.639C3.39413 11.4604 5.98154 11.7684 7.72702 11.2551C8.67163 10.9676 10.5198 9.42744 10.9716 8.5239C11.6287 7.27126 11.8546 5.66953 11.5671 4.29369C11.3206 3.12319 10.7251 1.74734 10.4582 1.76788C10.3966 1.78841 9.61624 2.28125 8.7127 2.87677Z" fill="black" fill-opacity="0.77"/>
<path d="M27.3377 2.03488C26.619 2.93842 26.3931 3.78036 26.3931 5.46423C26.3931 6.86061 26.4752 7.37399 26.8448 8.07218C28.0153 10.29 29.9046 11.5015 32.2045 11.5015C33.7241 11.5015 34.9767 11.1935 35.6749 10.6391L36.1472 10.2694L35.141 8.7293C33.2928 5.97761 31.1161 3.88303 28.4055 2.2813C27.7484 1.89114 27.502 1.82953 27.3377 2.03488Z" fill="black" fill-opacity="0.77"/>
<path d="M17.8303 8.5239C17.1321 9.24263 17.0705 9.92028 17.666 10.6801C17.9945 11.1113 18.2615 11.214 18.9802 11.214C19.6989 11.214 19.9659 11.1113 20.2945 10.6801C20.9926 9.79707 20.7257 8.58551 19.7605 8.15427C18.9597 7.78464 18.4668 7.88732 17.8303 8.5239Z" fill="black" fill-opacity="0.77"/>
<path d="M11.7925 10.6185C11.0122 10.8444 10.6631 11.3167 10.6631 12.1586C10.6631 13.1648 11.2791 13.7809 12.3059 13.7809C12.963 13.7809 13.271 13.6577 13.5585 13.288C13.9898 12.7747 14.0719 11.8301 13.7433 11.214C13.4764 10.7006 12.5318 10.4131 11.7925 10.6185Z" fill="black" fill-opacity="0.77"/>
<path d="M24.8943 10.5979C23.9907 10.9676 23.7032 12.4461 24.4014 13.288C24.9559 13.9657 26.3523 13.9657 26.9067 13.288C27.3995 12.6925 27.3995 11.6042 26.9478 11.0497C26.5165 10.5569 25.5309 10.331 24.8943 10.5979Z" fill="black" fill-opacity="0.77"/>
<path d="M0.662792 13.5139C-0.158608 15.7933 -0.220213 21.2762 0.498512 23.6788C0.847608 24.8082 0.950283 24.9519 1.31991 24.8493C4.31803 23.9457 6.14564 21.6869 6.14564 18.8736C6.14564 16.1219 4.07161 13.4318 1.6074 12.9595C0.950283 12.8363 0.888678 12.8774 0.662792 13.5139Z" fill="black" fill-opacity="0.77"/>
<path d="M35.8186 13.0827C34.7714 13.3907 33.2312 14.746 32.5536 15.9371C31.9786 16.9638 31.917 17.2308 31.917 18.812C31.9375 20.2905 32.0197 20.7217 32.4714 21.6047C33.1902 22.96 34.3607 24.0073 35.8186 24.5412C36.4758 24.7877 37.0507 24.9519 37.0918 24.8903C37.1534 24.8493 37.3793 24.0689 37.6052 23.1859C38.1186 21.2351 38.2212 17.2513 37.79 15.5264C37.0713 12.5282 37.1945 12.672 35.8186 13.0827Z" fill="black" fill-opacity="0.77"/>
<path d="M8.63014 17.5183C7.93195 18.0932 7.84981 19.2432 8.42479 19.9209C9.63635 21.3172 11.9363 20.003 11.2792 18.2986C10.8479 17.1692 9.51314 16.7995 8.63014 17.5183Z" fill="black" fill-opacity="0.77"/>
<path d="M26.9887 17.703C25.8182 18.9762 26.8039 20.619 28.6315 20.4752C29.1243 20.4136 29.9663 19.469 29.9663 18.9557C29.9663 18.4217 29.4118 17.4361 29.0422 17.2923C28.2824 17.0048 27.4815 17.1691 26.9887 17.703Z" fill="black" fill-opacity="0.77"/>
<path d="M11.5464 23.9457C10.1911 24.5002 10.4375 26.8001 11.875 27.1287C12.5526 27.2724 13.6204 26.8206 13.8258 26.3073C14.1749 25.3626 13.9079 24.4386 13.1071 24.0484C12.4499 23.6993 12.2035 23.6788 11.5464 23.9457Z" fill="black" fill-opacity="0.77"/>
<path d="M24.9353 23.9868C24.2782 24.3359 24.0112 24.7877 24.0112 25.5885C24.0112 26.4921 24.4835 27.0054 25.5103 27.1697C27.2558 27.4367 28.0566 24.8698 26.4549 24.0484C25.7772 23.6788 25.4898 23.6788 24.9353 23.9868Z" fill="black" fill-opacity="0.77"/>
<path d="M3.12693 26.7179C2.53141 26.9849 2.03857 27.3135 2.03857 27.4367C2.03857 27.7858 3.59924 30.2294 4.54385 31.3589C5.65274 32.6731 8.11694 34.6855 9.49279 35.3632C10.499 35.8766 10.5401 35.8971 10.807 35.5275C11.382 34.7471 11.7516 32.9606 11.6284 31.6053C11.4231 29.3875 10.3553 27.8268 8.36336 26.8411C6.70002 25.9992 4.7492 25.9581 3.12693 26.7179Z" fill="black" fill-opacity="0.77"/>
<path d="M30.0896 26.6153C28.837 27.1081 27.6459 28.2375 26.9272 29.5928C26.188 31.0303 26.1674 33.2686 26.8656 34.7882C27.1531 35.3837 27.4611 35.856 27.5638 35.856C28.3031 35.856 31.5271 33.515 33.0877 31.8312C34.2377 30.6196 35.9216 28.0732 35.9216 27.6009C35.9216 27.334 35.5725 27.0465 34.8537 26.7179C33.4779 26.0813 31.5681 26.0403 30.0896 26.6153Z" fill="black" fill-opacity="0.77"/>
<path d="M17.8304 27.0054C17.4813 27.3751 17.2349 27.8268 17.2349 28.1554C17.2349 28.8741 18.2616 29.9009 18.9803 29.9009C19.6991 29.9009 20.7258 28.8741 20.7258 28.1554C20.7258 27.4367 19.6991 26.4099 18.9803 26.4099C18.6518 26.4099 18.2 26.6563 17.8304 27.0054Z" fill="black" fill-opacity="0.77"/>
<path d="M17.5426 31.9338C15.5918 32.4472 13.7642 34.1516 13.2303 35.9176C13.066 36.4926 12.9633 36.9855 13.0249 37.0471C13.066 37.0881 13.8668 37.314 14.8115 37.5399C17.7685 38.2586 21.3416 38.1354 24.6888 37.1703C25.1611 37.0265 25.1406 36.698 24.5451 35.4043C23.9701 34.1106 22.8612 32.9401 21.6085 32.3445C20.6229 31.8722 18.5694 31.6669 17.5426 31.9338Z" fill="black" fill-opacity="0.77"/>
</svg>
